<mxfile host="app.diagrams.net" modified="2020-08-20T07:44:54.255Z" agent="5.0 (Windows)" etag="KQMfVmBKXJ1OGec1lqoh" version="13.6.3" type="github">
  <diagram id="xuWYb-OyNWLFMOGDgIFq" name="Page-1">
    <mxGraphModel dx="1038" dy="587" grid="1" gridSize="10" guides="0" tooltips="1" connect="1" arrows="1" fold="1" page="1" pageScale="1" pageWidth="583" pageHeight="827" background="#ffffff" math="0" shadow="0">
      <root>
        <mxCell id="0" />
        <mxCell id="1" parent="0" />
        <mxCell id="wjCIMxuwmsn5qIuKQqMn-4" style="edgeStyle=orthogonalEdgeStyle;rounded=0;orthogonalLoop=1;jettySize=auto;html=1;exitX=1;exitY=0.5;exitDx=0;exitDy=0;" parent="1" source="wjCIMxuwmsn5qIuKQqMn-1" target="wjCIMxuwmsn5qIuKQqMn-3" edge="1">
          <mxGeometry relative="1" as="geometry" />
        </mxCell>
        <mxCell id="wjCIMxuwmsn5qIuKQqMn-1" value="&lt;br&gt;DATA COLLECTION WITH APPID COLLECT" style="rounded=1;whiteSpace=wrap;html=1;" parent="1" vertex="1">
          <mxGeometry x="232" y="40" width="120" height="60" as="geometry" />
        </mxCell>
        <mxCell id="wjCIMxuwmsn5qIuKQqMn-6" style="edgeStyle=orthogonalEdgeStyle;rounded=0;orthogonalLoop=1;jettySize=auto;html=1;exitX=0.5;exitY=0;exitDx=0;exitDy=0;entryX=0.5;entryY=1;entryDx=0;entryDy=0;" parent="1" target="wjCIMxuwmsn5qIuKQqMn-1" edge="1">
          <mxGeometry relative="1" as="geometry">
            <mxPoint x="292" y="300" as="sourcePoint" />
            <Array as="points">
              <mxPoint x="290" y="300" />
            </Array>
          </mxGeometry>
        </mxCell>
        <mxCell id="wjCIMxuwmsn5qIuKQqMn-8" style="edgeStyle=orthogonalEdgeStyle;rounded=0;orthogonalLoop=1;jettySize=auto;html=1;exitX=0.5;exitY=1;exitDx=0;exitDy=0;entryX=1.017;entryY=0.525;entryDx=0;entryDy=0;entryPerimeter=0;" parent="1" source="wjCIMxuwmsn5qIuKQqMn-3" target="wjCIMxuwmsn5qIuKQqMn-7" edge="1">
          <mxGeometry relative="1" as="geometry" />
        </mxCell>
        <mxCell id="wjCIMxuwmsn5qIuKQqMn-3" value="FORM VALIDATION" style="rhombus;whiteSpace=wrap;html=1;" parent="1" vertex="1">
          <mxGeometry x="450" y="150" width="100" height="80" as="geometry" />
        </mxCell>
        <mxCell id="Cj4uTGwDQnPfkzXzGSmn-2" value="" style="edgeStyle=orthogonalEdgeStyle;rounded=0;orthogonalLoop=1;jettySize=auto;html=1;" parent="1" source="wjCIMxuwmsn5qIuKQqMn-7" target="Cj4uTGwDQnPfkzXzGSmn-1" edge="1">
          <mxGeometry relative="1" as="geometry" />
        </mxCell>
        <mxCell id="wjCIMxuwmsn5qIuKQqMn-7" value="SERVER" style="shape=cylinder2;whiteSpace=wrap;html=1;boundedLbl=1;backgroundOutline=1;size=15;" parent="1" vertex="1">
          <mxGeometry x="262" y="260" width="60" height="80" as="geometry" />
        </mxCell>
        <mxCell id="wjCIMxuwmsn5qIuKQqMn-9" value="FORM DOWNLOAD" style="text;html=1;strokeColor=none;fillColor=none;align=center;verticalAlign=middle;whiteSpace=wrap;rounded=0;" parent="1" vertex="1">
          <mxGeometry x="222" y="180" width="40" height="20" as="geometry" />
        </mxCell>
        <mxCell id="wjCIMxuwmsn5qIuKQqMn-10" value="DATA SUBMISSION" style="text;html=1;strokeColor=none;fillColor=none;align=center;verticalAlign=middle;whiteSpace=wrap;rounded=0;" parent="1" vertex="1">
          <mxGeometry x="440" y="40" width="40" height="20" as="geometry" />
        </mxCell>
        <mxCell id="1RKwqdQD88ozAVcE06RQ-2" value="" style="edgeStyle=orthogonalEdgeStyle;rounded=0;orthogonalLoop=1;jettySize=auto;html=1;" edge="1" parent="1" source="Cj4uTGwDQnPfkzXzGSmn-1" target="1RKwqdQD88ozAVcE06RQ-1">
          <mxGeometry relative="1" as="geometry" />
        </mxCell>
        <mxCell id="Cj4uTGwDQnPfkzXzGSmn-1" value="DATA VERIFICATON / VALIDATION" style="shape=parallelogram;perimeter=parallelogramPerimeter;whiteSpace=wrap;html=1;fixedSize=1;" parent="1" vertex="1">
          <mxGeometry x="210" y="440" width="158" height="60" as="geometry" />
        </mxCell>
        <mxCell id="1RKwqdQD88ozAVcE06RQ-1" value="WEB PORTAL" style="whiteSpace=wrap;html=1;" vertex="1" parent="1">
          <mxGeometry x="229" y="580" width="120" height="60" as="geometry" />
        </mxCell>
      </root>
    </mxGraphModel>
  </diagram>
</mxfile>
